<svg width="26" height="20" viewBox="0 0 26 20" fill="none" xmlns="http://www.w3.org/2000/svg">
<path d="M15.91 15.5203H13.8048V8.63646C13.8048 8.51146 13.7025 8.40918 13.5775 8.40918H11.8729C11.7479 8.40918 11.6456 8.51146 11.6456 8.63646V15.5203H9.5461C9.35575 15.5203 9.25063 15.7391 9.36712 15.8868L12.5491 19.9126C12.5703 19.9397 12.5975 19.9617 12.6285 19.9768C12.6595 19.9919 12.6936 19.9998 12.7281 19.9998C12.7626 19.9998 12.7966 19.9919 12.8276 19.9768C12.8586 19.9617 12.8858 19.9397 12.9071 19.9126L16.089 15.8868C16.2055 15.7391 16.1004 15.5203 15.91 15.5203Z" fill="#C22622"/>
<path d="M21.2339 5.87243C19.9327 2.44045 16.6173 0 12.7335 0C8.84984 0 5.53435 2.43761 4.23315 5.86959C1.79838 6.50883 0 8.72768 0 11.3642C0 14.5035 2.54273 17.0462 5.67924 17.0462H6.8185C6.94351 17.0462 7.04578 16.944 7.04578 16.819V15.1143C7.04578 14.9893 6.94351 14.8871 6.8185 14.8871H5.67924C4.72181 14.8871 3.8212 14.5064 3.15071 13.816C2.48307 13.1285 2.12794 12.2023 2.15919 11.242C2.18476 10.492 2.44045 9.78739 2.90354 9.19361C3.378 8.58847 4.0428 8.14811 4.78147 7.95207L5.85823 7.67081L6.25313 6.63099C6.49746 5.98323 6.83839 5.37809 7.26738 4.82977C7.6909 4.2863 8.19258 3.80856 8.75609 3.41209C9.92376 2.59103 11.2988 2.15635 12.7335 2.15635C14.1683 2.15635 15.5433 2.59103 16.711 3.41209C17.2764 3.80984 17.7764 4.28713 18.1997 4.82977C18.6287 5.37809 18.9696 5.98607 19.214 6.63099L19.606 7.66797L20.6799 7.95207C22.2198 8.36687 23.2965 9.7675 23.2965 11.3642C23.2965 12.3045 22.93 13.191 22.2652 13.8558C21.9392 14.1837 21.5514 14.4437 21.1242 14.6207C20.697 14.7977 20.2389 14.8883 19.7765 14.8871H18.6372C18.5122 14.8871 18.4099 14.9893 18.4099 15.1143V16.819C18.4099 16.944 18.5122 17.0462 18.6372 17.0462H19.7765C22.913 17.0462 25.4557 14.5035 25.4557 11.3642C25.4557 8.73052 23.663 6.51451 21.2339 5.87243Z" fill="#C22622"/>
</svg>
