<svg width="108" height="178" viewBox="0 0 108 178" fill="none" xmlns="http://www.w3.org/2000/svg">
<g filter="url(#filter0_d)">
<path d="M4 5C4 2.23858 6.23858 0 9 0H104V170H9C6.23858 170 4 167.761 4 165V5Z" fill="#C22622"/>
</g>
<path d="M16.1529 23.4H20.8149C22.0389 23.4 23.1249 23.652 24.0729 24.156C25.0209 24.648 25.7589 25.374 26.2869 26.334C26.8149 27.282 27.0789 28.404 27.0789 29.7C27.0789 30.996 26.8149 32.124 26.2869 33.084C25.7589 34.032 25.0209 34.758 24.0729 35.262C23.1249 35.754 22.0389 36 20.8149 36H16.1529V23.4ZM20.8149 34.452C22.2189 34.452 23.2989 34.026 24.0549 33.174C24.8229 32.31 25.2069 31.152 25.2069 29.7C25.2069 28.248 24.8229 27.096 24.0549 26.244C23.2989 25.38 22.2189 24.948 20.8149 24.948H17.8629V34.452H20.8149ZM32.6355 36.18C31.7355 36.18 30.9555 35.982 30.2955 35.586C29.6355 35.178 29.1315 34.626 28.7835 33.93C28.4355 33.234 28.2615 32.454 28.2615 31.59C28.2615 30.726 28.4355 29.946 28.7835 29.25C29.1315 28.554 29.6355 28.008 30.2955 27.612C30.9555 27.204 31.7355 27 32.6355 27C33.5235 27 34.2975 27.204 34.9575 27.612C35.6295 28.008 36.1395 28.554 36.4875 29.25C36.8355 29.946 37.0095 30.726 37.0095 31.59C37.0095 32.454 36.8355 33.234 36.4875 33.93C36.1395 34.626 35.6295 35.178 34.9575 35.586C34.2975 35.982 33.5235 36.18 32.6355 36.18ZM32.6355 34.74C33.4995 34.74 34.1655 34.464 34.6335 33.912C35.1135 33.36 35.3535 32.586 35.3535 31.59C35.3535 30.594 35.1135 29.82 34.6335 29.268C34.1655 28.716 33.4995 28.44 32.6355 28.44C31.7715 28.44 31.0995 28.716 30.6195 29.268C30.1515 29.82 29.9175 30.594 29.9175 31.59C29.9175 32.586 30.1515 33.36 30.6195 33.912C31.0995 34.464 31.7715 34.74 32.6355 34.74ZM37.7101 27.18H39.6181L41.3101 34.218L43.1821 27.45H44.8561L46.7461 34.218L48.4381 27.18H50.3461L47.6821 36H45.8641L44.0281 29.484L42.1741 36H40.3561L37.7101 27.18ZM55.9911 27C58.3911 27 59.5911 28.38 59.5911 31.14V36H57.9711V31.14C57.9711 30.192 57.7911 29.508 57.4311 29.088C57.0831 28.656 56.4951 28.44 55.6671 28.44C55.1391 28.44 54.6591 28.536 54.2271 28.728C53.7951 28.92 53.4711 29.208 53.2551 29.592V36H51.6351V27.18H52.8951L53.0751 28.116C53.5431 27.696 54.0111 27.408 54.4791 27.252C54.9591 27.084 55.4631 27 55.9911 27ZM63.9578 36.18C63.1658 36.18 62.5838 35.976 62.2118 35.568C61.8518 35.16 61.6718 34.656 61.6718 34.056V22.5H63.2918V33.12C63.2918 33.648 63.3218 34.032 63.3818 34.272C63.4538 34.512 63.5858 34.674 63.7778 34.758C63.9698 34.842 64.2818 34.884 64.7138 34.884L64.4798 36.18H63.9578ZM69.7078 36.18C68.8078 36.18 68.0278 35.982 67.3678 35.586C66.7078 35.178 66.2038 34.626 65.8558 33.93C65.5078 33.234 65.3338 32.454 65.3338 31.59C65.3338 30.726 65.5078 29.946 65.8558 29.25C66.2038 28.554 66.7078 28.008 67.3678 27.612C68.0278 27.204 68.8078 27 69.7078 27C70.5958 27 71.3698 27.204 72.0298 27.612C72.7018 28.008 73.2118 28.554 73.5598 29.25C73.9078 29.946 74.0818 30.726 74.0818 31.59C74.0818 32.454 73.9078 33.234 73.5598 33.93C73.2118 34.626 72.7018 35.178 72.0298 35.586C71.3698 35.982 70.5958 36.18 69.7078 36.18ZM69.7078 34.74C70.5718 34.74 71.2378 34.464 71.7058 33.912C72.1858 33.36 72.4258 32.586 72.4258 31.59C72.4258 30.594 72.1858 29.82 71.7058 29.268C71.2378 28.716 70.5718 28.44 69.7078 28.44C68.8438 28.44 68.1718 28.716 67.6918 29.268C67.2238 29.82 66.9898 30.594 66.9898 31.59C66.9898 32.586 67.2238 33.36 67.6918 33.912C68.1718 34.464 68.8438 34.74 69.7078 34.74ZM77.8043 36.18C76.9883 36.18 76.3283 35.94 75.8243 35.46C75.3323 34.98 75.0863 34.368 75.0863 33.624C75.0863 32.508 75.6143 31.71 76.6703 31.23C77.7263 30.75 78.9563 30.498 80.3603 30.474C80.3603 29.682 80.2043 29.148 79.8923 28.872C79.5923 28.584 79.1063 28.44 78.4343 28.44C78.0623 28.44 77.6903 28.5 77.3183 28.62C76.9463 28.728 76.5443 28.932 76.1123 29.232L75.8783 27.918C76.2383 27.642 76.6823 27.42 77.2103 27.252C77.7383 27.084 78.2903 27 78.8663 27C79.6223 27 80.2223 27.132 80.6663 27.396C81.1223 27.66 81.4523 28.098 81.6563 28.71C81.8723 29.322 81.9803 30.162 81.9803 31.23V33.03C81.9803 33.51 81.9983 33.876 82.0343 34.128C82.0823 34.368 82.1783 34.554 82.3223 34.686C82.4663 34.818 82.6883 34.884 82.9883 34.884H83.1503L82.8983 36.18H82.7723C82.2683 36.18 81.8723 36.132 81.5843 36.036C81.2963 35.94 81.0743 35.802 80.9183 35.622C80.7743 35.442 80.6363 35.196 80.5043 34.884C79.7603 35.748 78.8603 36.18 77.8043 36.18ZM78.1103 34.884C78.5423 34.884 78.9563 34.776 79.3523 34.56C79.7603 34.344 80.0963 34.056 80.3603 33.696V31.59C79.0643 31.638 78.1343 31.812 77.5703 32.112C77.0183 32.4 76.7423 32.874 76.7423 33.534C76.7423 33.99 76.8623 34.332 77.1023 34.56C77.3543 34.776 77.6903 34.884 78.1103 34.884ZM92.2127 22.5V36H90.7727L90.5927 34.92C90.2927 35.328 89.9027 35.64 89.4227 35.856C88.9427 36.072 88.4327 36.18 87.8927 36.18C87.1487 36.18 86.4707 35.976 85.8587 35.568C85.2467 35.16 84.7607 34.608 84.4007 33.912C84.0527 33.216 83.8787 32.448 83.8787 31.608C83.8787 30.792 84.0407 30.03 84.3647 29.322C84.7007 28.614 85.1747 28.05 85.7867 27.63C86.3987 27.21 87.1007 27 87.8927 27C88.4207 27 88.9187 27.096 89.3867 27.288C89.8547 27.48 90.2567 27.774 90.5927 28.17V22.5H92.2127ZM88.1807 34.74C88.6127 34.74 89.0267 34.632 89.4227 34.416C89.8187 34.188 90.1427 33.84 90.3947 33.372C90.6467 32.904 90.7727 32.316 90.7727 31.608C90.7727 30.948 90.6467 30.378 90.3947 29.898C90.1427 29.418 89.8127 29.058 89.4047 28.818C89.0087 28.566 88.6007 28.44 88.1807 28.44C87.3647 28.44 86.7167 28.74 86.2367 29.34C85.7687 29.928 85.5347 30.684 85.5347 31.608C85.5347 32.496 85.7747 33.24 86.2547 33.84C86.7347 34.44 87.3767 34.74 88.1807 34.74ZM40.1375 44.5V58H38.6975L38.5175 56.92C38.2175 57.328 37.8275 57.64 37.3475 57.856C36.8675 58.072 36.3575 58.18 35.8175 58.18C35.0735 58.18 34.3955 57.976 33.7835 57.568C33.1715 57.16 32.6855 56.608 32.3255 55.912C31.9775 55.216 31.8035 54.448 31.8035 53.608C31.8035 52.792 31.9655 52.03 32.2895 51.322C32.6255 50.614 33.0995 50.05 33.7115 49.63C34.3235 49.21 35.0255 49 35.8175 49C36.3455 49 36.8435 49.096 37.3115 49.288C37.7795 49.48 38.1815 49.774 38.5175 50.17V44.5H40.1375ZM36.1055 56.74C36.5375 56.74 36.9515 56.632 37.3475 56.416C37.7435 56.188 38.0675 55.84 38.3195 55.372C38.5715 54.904 38.6975 54.316 38.6975 53.608C38.6975 52.948 38.5715 52.378 38.3195 51.898C38.0675 51.418 37.7375 51.058 37.3295 50.818C36.9335 50.566 36.5255 50.44 36.1055 50.44C35.2895 50.44 34.6415 50.74 34.1615 51.34C33.6935 51.928 33.4595 52.684 33.4595 53.608C33.4595 54.496 33.6995 55.24 34.1795 55.84C34.6595 56.44 35.3015 56.74 36.1055 56.74ZM42.3099 45.4H43.9299V47.2H42.3099V45.4ZM42.3099 49.18H43.9299V58H42.3099V49.18ZM49.6884 62.5C48.4404 62.5 47.4264 62.272 46.6464 61.816C45.8784 61.36 45.4944 60.712 45.4944 59.872C45.4944 58.948 46.0044 58.258 47.0244 57.802C46.4484 57.514 46.1604 57.142 46.1604 56.686C46.1604 56.11 46.5084 55.684 47.2044 55.408C46.7124 55.108 46.3344 54.7 46.0704 54.184C45.8064 53.668 45.6744 53.086 45.6744 52.438C45.6744 51.79 45.8184 51.208 46.1064 50.692C46.4064 50.164 46.8264 49.75 47.3664 49.45C47.9184 49.15 48.5664 49 49.3104 49C50.1024 49 50.8224 49.228 51.4704 49.684C52.1064 49.324 52.8384 49.144 53.6664 49.144H53.8104L53.6124 50.224H53.1984C53.0904 50.224 52.9344 50.236 52.7304 50.26C52.5264 50.284 52.3464 50.314 52.1904 50.35C52.4424 50.638 52.6344 50.962 52.7664 51.322C52.8984 51.682 52.9644 52.054 52.9644 52.438C52.9644 53.11 52.8144 53.716 52.5144 54.256C52.2264 54.784 51.8064 55.204 51.2544 55.516C50.7024 55.816 50.0544 55.966 49.3104 55.966C48.8784 55.966 48.4824 55.912 48.1224 55.804C47.8464 55.9 47.7084 56.056 47.7084 56.272C47.7084 56.56 48.0384 56.752 48.6984 56.848L51.0564 57.226C52.0404 57.382 52.7844 57.664 53.2884 58.072C53.7924 58.48 54.0444 59.044 54.0444 59.764C54.0444 60.664 53.6544 61.342 52.8744 61.798C52.1064 62.266 51.0444 62.5 49.6884 62.5ZM49.3104 54.67C49.9824 54.67 50.4984 54.472 50.8584 54.076C51.2304 53.668 51.4164 53.128 51.4164 52.456C51.4164 51.808 51.2304 51.286 50.8584 50.89C50.4984 50.494 49.9824 50.296 49.3104 50.296C48.6384 50.296 48.1224 50.494 47.7624 50.89C47.4024 51.286 47.2224 51.808 47.2224 52.456C47.2224 53.128 47.4024 53.668 47.7624 54.076C48.1224 54.472 48.6384 54.67 49.3104 54.67ZM49.8324 61.06C50.6604 61.06 51.2964 60.952 51.7404 60.736C52.1844 60.52 52.4064 60.208 52.4064 59.8C52.4064 59.488 52.2684 59.236 51.9924 59.044C51.7284 58.864 51.3264 58.72 50.7864 58.612L48.2664 58.18C47.9064 58.348 47.6124 58.552 47.3844 58.792C47.1564 59.044 47.0424 59.32 47.0424 59.62C47.0424 60.112 47.2884 60.472 47.7804 60.7C48.2724 60.94 48.9564 61.06 49.8324 61.06ZM55.0892 45.4H56.7092V47.2H55.0892V45.4ZM55.0892 49.18H56.7092V58H55.0892V49.18ZM61.9457 58.18C61.1657 58.18 60.5837 57.976 60.1997 57.568C59.8277 57.16 59.6417 56.662 59.6417 56.074V50.44H58.1297L58.2737 49.18H59.6417V47.002L61.2617 46.84V49.18H63.5837V50.44H61.2617V55.084C61.2617 55.696 61.2977 56.116 61.3697 56.344C61.4417 56.572 61.5917 56.722 61.8197 56.794C62.0597 56.854 62.4917 56.884 63.1157 56.884H63.5297L63.4037 58.18H61.9457ZM67.0201 58.18C66.2041 58.18 65.5441 57.94 65.0401 57.46C64.5481 56.98 64.3021 56.368 64.3021 55.624C64.3021 54.508 64.8301 53.71 65.8861 53.23C66.9421 52.75 68.1721 52.498 69.5761 52.474C69.5761 51.682 69.4201 51.148 69.1081 50.872C68.8081 50.584 68.3221 50.44 67.6501 50.44C67.2781 50.44 66.9061 50.5 66.5341 50.62C66.1621 50.728 65.7601 50.932 65.3281 51.232L65.0941 49.918C65.4541 49.642 65.8981 49.42 66.4261 49.252C66.9541 49.084 67.5061 49 68.0821 49C68.8381 49 69.4381 49.132 69.8821 49.396C70.3381 49.66 70.6681 50.098 70.8721 50.71C71.0881 51.322 71.1961 52.162 71.1961 53.23V55.03C71.1961 55.51 71.2141 55.876 71.2501 56.128C71.2981 56.368 71.3941 56.554 71.5381 56.686C71.6821 56.818 71.9041 56.884 72.2041 56.884H72.3661L72.1141 58.18H71.9881C71.4841 58.18 71.0881 58.132 70.8001 58.036C70.5121 57.94 70.2901 57.802 70.1341 57.622C69.9901 57.442 69.8521 57.196 69.7201 56.884C68.9761 57.748 68.0761 58.18 67.0201 58.18ZM67.3261 56.884C67.7581 56.884 68.1721 56.776 68.5681 56.56C68.9761 56.344 69.3121 56.056 69.5761 55.696V53.59C68.2801 53.638 67.3501 53.812 66.7861 54.112C66.2341 54.4 65.9581 54.874 65.9581 55.534C65.9581 55.99 66.0781 56.332 66.3181 56.56C66.5701 56.776 66.9061 56.884 67.3261 56.884ZM75.8846 58.18C75.0926 58.18 74.5106 57.976 74.1386 57.568C73.7786 57.16 73.5986 56.656 73.5986 56.056V44.5H75.2186V55.12C75.2186 55.648 75.2486 56.032 75.3086 56.272C75.3806 56.512 75.5126 56.674 75.7046 56.758C75.8966 56.842 76.2086 56.884 76.6406 56.884L76.4066 58.18H75.8846ZM22.6294 80.18C21.6694 80.18 20.8414 79.982 20.1454 79.586C19.4614 79.19 18.9454 78.65 18.5974 77.966C18.2494 77.27 18.0754 76.496 18.0754 75.644C18.0754 74.252 18.4654 73.13 19.2454 72.278C20.0374 71.426 21.2074 71 22.7554 71C23.6674 71 24.4714 71.174 25.1674 71.522L24.9154 72.944C24.1834 72.608 23.4514 72.44 22.7194 72.44C21.7594 72.44 21.0214 72.716 20.5054 73.268C19.9894 73.808 19.7314 74.576 19.7314 75.572C19.7314 76.568 19.9774 77.348 20.4694 77.912C20.9734 78.476 21.7114 78.758 22.6834 78.758C23.4634 78.758 24.2134 78.578 24.9334 78.218L25.1494 79.514C24.8854 79.694 24.5194 79.85 24.0514 79.982C23.5954 80.114 23.1214 80.18 22.6294 80.18ZM28.8053 80.18C27.9893 80.18 27.3293 79.94 26.8253 79.46C26.3333 78.98 26.0873 78.368 26.0873 77.624C26.0873 76.508 26.6153 75.71 27.6713 75.23C28.7273 74.75 29.9573 74.498 31.3613 74.474C31.3613 73.682 31.2053 73.148 30.8933 72.872C30.5933 72.584 30.1073 72.44 29.4353 72.44C29.0633 72.44 28.6913 72.5 28.3193 72.62C27.9473 72.728 27.5453 72.932 27.1133 73.232L26.8793 71.918C27.2393 71.642 27.6833 71.42 28.2113 71.252C28.7393 71.084 29.2913 71 29.8673 71C30.6233 71 31.2233 71.132 31.6673 71.396C32.1233 71.66 32.4533 72.098 32.6573 72.71C32.8733 73.322 32.9813 74.162 32.9813 75.23V77.03C32.9813 77.51 32.9993 77.876 33.0353 78.128C33.0833 78.368 33.1793 78.554 33.3233 78.686C33.4673 78.818 33.6893 78.884 33.9893 78.884H34.1513L33.8993 80.18H33.7733C33.2693 80.18 32.8733 80.132 32.5853 80.036C32.2973 79.94 32.0753 79.802 31.9193 79.622C31.7753 79.442 31.6373 79.196 31.5053 78.884C30.7613 79.748 29.8613 80.18 28.8053 80.18ZM29.1113 78.884C29.5433 78.884 29.9573 78.776 30.3533 78.56C30.7613 78.344 31.0973 78.056 31.3613 77.696V75.59C30.0653 75.638 29.1353 75.812 28.5713 76.112C28.0193 76.4 27.7433 76.874 27.7433 77.534C27.7433 77.99 27.8633 78.332 28.1033 78.56C28.3553 78.776 28.6913 78.884 29.1113 78.884ZM38.2679 80.18C37.4879 80.18 36.9059 79.976 36.5219 79.568C36.1499 79.16 35.9639 78.662 35.9639 78.074V72.44H34.4519L34.5959 71.18H35.9639V69.002L37.5839 68.84V71.18H39.9059V72.44H37.5839V77.084C37.5839 77.696 37.6199 78.116 37.6919 78.344C37.7639 78.572 37.9139 78.722 38.1419 78.794C38.3819 78.854 38.8139 78.884 39.4379 78.884H39.8519L39.7259 80.18H38.2679ZM43.3424 80.18C42.5264 80.18 41.8664 79.94 41.3624 79.46C40.8704 78.98 40.6244 78.368 40.6244 77.624C40.6244 76.508 41.1524 75.71 42.2084 75.23C43.2644 74.75 44.4944 74.498 45.8984 74.474C45.8984 73.682 45.7424 73.148 45.4304 72.872C45.1304 72.584 44.6444 72.44 43.9724 72.44C43.6004 72.44 43.2284 72.5 42.8564 72.62C42.4844 72.728 42.0824 72.932 41.6504 73.232L41.4164 71.918C41.7764 71.642 42.2204 71.42 42.7484 71.252C43.2764 71.084 43.8284 71 44.4044 71C45.1604 71 45.7604 71.132 46.2044 71.396C46.6604 71.66 46.9904 72.098 47.1944 72.71C47.4104 73.322 47.5184 74.162 47.5184 75.23V77.03C47.5184 77.51 47.5364 77.876 47.5724 78.128C47.6204 78.368 47.7164 78.554 47.8604 78.686C48.0044 78.818 48.2264 78.884 48.5264 78.884H48.6884L48.4364 80.18H48.3104C47.8064 80.18 47.4104 80.132 47.1224 80.036C46.8344 79.94 46.6124 79.802 46.4564 79.622C46.3124 79.442 46.1744 79.196 46.0424 78.884C45.2984 79.748 44.3984 80.18 43.3424 80.18ZM43.6484 78.884C44.0804 78.884 44.4944 78.776 44.8904 78.56C45.2984 78.344 45.6344 78.056 45.8984 77.696V75.59C44.6024 75.638 43.6724 75.812 43.1084 76.112C42.5564 76.4 42.2804 76.874 42.2804 77.534C42.2804 77.99 42.4004 78.332 42.6404 78.56C42.8924 78.776 43.2284 78.884 43.6484 78.884ZM52.2068 80.18C51.4148 80.18 50.8328 79.976 50.4608 79.568C50.1008 79.16 49.9208 78.656 49.9208 78.056V66.5H51.5408V77.12C51.5408 77.648 51.5708 78.032 51.6308 78.272C51.7028 78.512 51.8348 78.674 52.0268 78.758C52.2188 78.842 52.5308 78.884 52.9628 78.884L52.7288 80.18H52.2068ZM57.9568 80.18C57.0568 80.18 56.2768 79.982 55.6168 79.586C54.9568 79.178 54.4528 78.626 54.1048 77.93C53.7568 77.234 53.5828 76.454 53.5828 75.59C53.5828 74.726 53.7568 73.946 54.1048 73.25C54.4528 72.554 54.9568 72.008 55.6168 71.612C56.2768 71.204 57.0568 71 57.9568 71C58.8448 71 59.6188 71.204 60.2788 71.612C60.9508 72.008 61.4608 72.554 61.8088 73.25C62.1568 73.946 62.3308 74.726 62.3308 75.59C62.3308 76.454 62.1568 77.234 61.8088 77.93C61.4608 78.626 60.9508 79.178 60.2788 79.586C59.6188 79.982 58.8448 80.18 57.9568 80.18ZM57.9568 78.74C58.8208 78.74 59.4868 78.464 59.9548 77.912C60.4348 77.36 60.6748 76.586 60.6748 75.59C60.6748 74.594 60.4348 73.82 59.9548 73.268C59.4868 72.716 58.8208 72.44 57.9568 72.44C57.0928 72.44 56.4208 72.716 55.9408 73.268C55.4728 73.82 55.2388 74.594 55.2388 75.59C55.2388 76.586 55.4728 77.36 55.9408 77.912C56.4208 78.464 57.0928 78.74 57.9568 78.74ZM67.5653 84.5C66.3173 84.5 65.3033 84.272 64.5233 83.816C63.7553 83.36 63.3713 82.712 63.3713 81.872C63.3713 80.948 63.8813 80.258 64.9013 79.802C64.3253 79.514 64.0373 79.142 64.0373 78.686C64.0373 78.11 64.3853 77.684 65.0813 77.408C64.5893 77.108 64.2113 76.7 63.9473 76.184C63.6833 75.668 63.5513 75.086 63.5513 74.438C63.5513 73.79 63.6953 73.208 63.9833 72.692C64.2833 72.164 64.7033 71.75 65.2433 71.45C65.7953 71.15 66.4433 71 67.1873 71C67.9793 71 68.6993 71.228 69.3473 71.684C69.9833 71.324 70.7153 71.144 71.5433 71.144H71.6873L71.4893 72.224H71.0753C70.9673 72.224 70.8113 72.236 70.6073 72.26C70.4033 72.284 70.2233 72.314 70.0673 72.35C70.3193 72.638 70.5113 72.962 70.6433 73.322C70.7753 73.682 70.8413 74.054 70.8413 74.438C70.8413 75.11 70.6913 75.716 70.3913 76.256C70.1033 76.784 69.6833 77.204 69.1313 77.516C68.5793 77.816 67.9313 77.966 67.1873 77.966C66.7553 77.966 66.3593 77.912 65.9993 77.804C65.7233 77.9 65.5853 78.056 65.5853 78.272C65.5853 78.56 65.9153 78.752 66.5753 78.848L68.9333 79.226C69.9173 79.382 70.6613 79.664 71.1653 80.072C71.6693 80.48 71.9213 81.044 71.9213 81.764C71.9213 82.664 71.5313 83.342 70.7513 83.798C69.9833 84.266 68.9213 84.5 67.5653 84.5ZM67.1873 76.67C67.8593 76.67 68.3753 76.472 68.7353 76.076C69.1073 75.668 69.2933 75.128 69.2933 74.456C69.2933 73.808 69.1073 73.286 68.7353 72.89C68.3753 72.494 67.8593 72.296 67.1873 72.296C66.5153 72.296 65.9993 72.494 65.6393 72.89C65.2793 73.286 65.0993 73.808 65.0993 74.456C65.0993 75.128 65.2793 75.668 65.6393 76.076C65.9993 76.472 66.5153 76.67 67.1873 76.67ZM67.7093 83.06C68.5373 83.06 69.1733 82.952 69.6173 82.736C70.0613 82.52 70.2833 82.208 70.2833 81.8C70.2833 81.488 70.1453 81.236 69.8693 81.044C69.6053 80.864 69.2033 80.72 68.6633 80.612L66.1433 80.18C65.7833 80.348 65.4893 80.552 65.2613 80.792C65.0333 81.044 64.9193 81.32 64.9193 81.62C64.9193 82.112 65.1653 82.472 65.6573 82.7C66.1493 82.94 66.8333 83.06 67.7093 83.06ZM80.2022 71.18V80H78.7622L78.5822 79.028C78.2942 79.424 77.9522 79.718 77.5562 79.91C77.1722 80.09 76.6982 80.18 76.1342 80.18C75.0782 80.18 74.2682 79.862 73.7042 79.226C73.1522 78.578 72.8762 77.606 72.8762 76.31V71.18H74.4962V75.86C74.4962 76.82 74.6582 77.54 74.9822 78.02C75.3182 78.5 75.8402 78.74 76.5482 78.74C76.9682 78.74 77.3582 78.656 77.7182 78.488C78.0902 78.32 78.3782 78.074 78.5822 77.75V71.18H80.2022ZM86.6356 80.18C85.6276 80.18 84.7636 79.976 84.0436 79.568C83.3356 79.148 82.7956 78.584 82.4236 77.876C82.0516 77.168 81.8656 76.382 81.8656 75.518C81.8656 74.69 82.0336 73.934 82.3696 73.25C82.7176 72.554 83.2156 72.008 83.8636 71.612C84.5236 71.204 85.2976 71 86.1856 71C87.3136 71 88.2256 71.33 88.9216 71.99C89.6296 72.65 89.9836 73.562 89.9836 74.726C89.9836 75.026 89.9596 75.314 89.9116 75.59H83.5216C83.6296 76.73 83.9776 77.54 84.5656 78.02C85.1536 78.5 85.9096 78.74 86.8336 78.74C87.7576 78.74 88.6036 78.566 89.3716 78.218L89.5876 79.496C88.5676 79.952 87.5836 80.18 86.6356 80.18ZM88.3096 74.474C88.3096 73.838 88.1296 73.34 87.7696 72.98C87.4096 72.62 86.8696 72.44 86.1496 72.44C85.4536 72.44 84.9076 72.614 84.5116 72.962C84.1156 73.298 83.8336 73.802 83.6656 74.474H88.3096Z" fill="white"/>
<path d="M60.8196 134.041H56.6092V120.273C56.6092 120.023 56.4046 119.819 56.1546 119.819H52.7453C52.4953 119.819 52.2908 120.023 52.2908 120.273V134.041H48.0917C47.711 134.041 47.5008 134.479 47.7337 134.774L54.0977 142.826C54.1402 142.88 54.1945 142.924 54.2566 142.954C54.3186 142.984 54.3867 143 54.4557 143C54.5246 143 54.5927 142.984 54.6548 142.954C54.7168 142.924 54.7711 142.88 54.8136 142.826L61.1776 134.774C61.4105 134.479 61.2003 134.041 60.8196 134.041Z" fill="white"/>
<path d="M71.4679 114.745C68.8655 107.881 62.2345 103 54.4671 103C46.6997 103 40.0687 107.875 37.4663 114.739C32.5968 116.018 29 120.455 29 125.728C29 132.007 34.0855 137.093 40.3585 137.093H42.637C42.887 137.093 43.0916 136.888 43.0916 136.638V133.229C43.0916 132.979 42.887 132.774 42.637 132.774H40.3585C38.4436 132.774 36.6424 132.013 35.3014 130.632C33.9661 129.257 33.2559 127.405 33.3184 125.484C33.3695 123.984 33.8809 122.575 34.8071 121.387C35.756 120.177 37.0856 119.296 38.563 118.904L40.7165 118.342L41.5063 116.262C41.9949 114.966 42.6768 113.756 43.5348 112.66C44.3818 111.573 45.3852 110.617 46.5122 109.824C48.8475 108.182 51.5977 107.313 54.4671 107.313C57.3366 107.313 60.0867 108.182 62.422 109.824C63.5528 110.62 64.5528 111.574 65.3994 112.66C66.2574 113.756 66.9393 114.972 67.4279 116.262L68.2121 118.336L70.3599 118.904C73.4396 119.734 75.5931 122.535 75.5931 125.728C75.5931 127.609 74.8601 129.382 73.5305 130.712C72.8785 131.367 72.1028 131.887 71.2484 132.241C70.394 132.596 69.4778 132.777 68.553 132.774H66.2745C66.0245 132.774 65.8199 132.979 65.8199 133.229V136.638C65.8199 136.888 66.0245 137.093 66.2745 137.093H68.553C74.826 137.093 79.9115 132.007 79.9115 125.728C79.9115 120.461 76.3261 116.029 71.4679 114.745Z" fill="white"/>
<defs>
<filter id="filter0_d" x="0" y="0" width="108" height="178" filterUnits="userSpaceOnUse" color-interpolation-filters="sRGB">
<feFlood flood-opacity="0" result="BackgroundImageFix"/>
<feColorMatrix in="SourceAlpha" type="matrix" values="0 0 0 0 0 0 0 0 0 0 0 0 0 0 0 0 0 0 127 0"/>
<feOffset dy="4"/>
<feGaussianBlur stdDeviation="2"/>
<feColorMatrix type="matrix" values="0 0 0 0 0 0 0 0 0 0 0 0 0 0 0 0 0 0 0.25 0"/>
<feBlend mode="normal" in2="BackgroundImageFix" result="effect1_dropShadow"/>
<feBlend mode="normal" in="SourceGraphic" in2="effect1_dropShadow" result="shape"/>
</filter>
</defs>
</svg>
