<svg width="25" height="25" viewBox="0 0 25 25" fill="none" xmlns="http://www.w3.org/2000/svg">
<circle cx="12.5" cy="12.5" r="12.5" fill="#C22622"/>
<path d="M14.5217 6.09335H14.073C13.9562 5.77288 13.7438 5.49608 13.4643 5.3005C13.1849 5.10491 12.8521 5 12.511 5C12.17 5 11.8371 5.10491 11.5577 5.3005C11.2783 5.49608 11.0658 5.77288 10.9491 6.09335H10.5901C10.3184 6.09447 10.0582 6.20289 9.8661 6.39499C9.674 6.58709 9.56558 6.84732 9.56445 7.11899V8.65745H15.5474V7.11899C15.5462 6.84732 15.4378 6.58709 15.2457 6.39499C15.0536 6.20289 14.7934 6.09447 14.5217 6.09335ZM14.6927 7.80275H10.4192V7.05489C10.4192 7.02655 10.4304 6.99938 10.4504 6.97934C10.4705 6.9593 10.4977 6.94805 10.526 6.94805H11.6756L11.7268 6.47369C11.7359 6.39699 11.7617 6.32321 11.8023 6.25751C11.8429 6.19182 11.8974 6.13579 11.9619 6.09335C12.0766 6.00785 12.2109 5.9525 12.3525 5.93239C12.4942 5.91227 12.6386 5.92803 12.7725 5.97821C12.9065 6.02839 13.0257 6.1114 13.1193 6.21962C13.2129 6.32784 13.2778 6.45781 13.308 6.59762L13.3465 6.95659H14.5858C14.6142 6.95659 14.6413 6.96785 14.6614 6.98789C14.6814 7.00792 14.6927 7.0351 14.6927 7.06343V7.80275Z" fill="white"/>
<path d="M19.0726 12.1021H13.9785L15.1922 10.8927C15.2321 10.8528 15.2637 10.8055 15.2852 10.7535C15.3068 10.7014 15.3179 10.6456 15.3179 10.5893C15.3179 10.5329 15.3068 10.4771 15.2852 10.425C15.2637 10.373 15.2321 10.3257 15.1922 10.2858C15.1524 10.246 15.1051 10.2144 15.053 10.1928C15.001 10.1713 14.9452 10.1602 14.8888 10.1602C14.8325 10.1602 14.7767 10.1713 14.7246 10.1928C14.6725 10.2144 14.6252 10.246 14.5854 10.2858L12.3418 12.5294L14.5854 14.773C14.6253 14.8126 14.6727 14.844 14.7247 14.8652C14.7768 14.8865 14.8326 14.8973 14.8888 14.8969C14.9728 14.8966 15.0549 14.8715 15.1247 14.8248C15.1945 14.7781 15.249 14.7118 15.2814 14.6343C15.3138 14.5568 15.3226 14.4714 15.3067 14.3889C15.2909 14.3064 15.251 14.2304 15.1922 14.1705L13.9785 12.9568H19.0726C19.1859 12.9568 19.2946 12.9118 19.3747 12.8316C19.4549 12.7515 19.4999 12.6428 19.4999 12.5294C19.4999 12.4161 19.4549 12.3074 19.3747 12.2272C19.2946 12.1471 19.1859 12.1021 19.0726 12.1021Z" fill="white"/>
<path d="M17.2561 11.2214H18.1108V7.23846C18.1119 7.14494 18.0945 7.05212 18.0596 6.96534C18.0248 6.87856 17.9731 6.79954 17.9075 6.73281C17.842 6.66609 17.7639 6.61298 17.6778 6.57654C17.5916 6.54011 17.4992 6.52106 17.4056 6.52051H16.4355V7.37521H17.2561V11.2214Z" fill="white"/>
<path d="M17.2565 17.6316H7.85475V7.37521H8.70945V6.52051H7.70091C7.5135 6.52276 7.33461 6.59908 7.20329 6.7328C7.07198 6.86652 6.99891 7.04677 7.00005 7.23418V17.7684C6.99892 17.8619 7.0163 17.9547 7.05118 18.0415C7.08605 18.1283 7.13775 18.2073 7.20328 18.274C7.26881 18.3407 7.34689 18.3938 7.43303 18.4303C7.51917 18.4667 7.61166 18.4858 7.70518 18.4863H17.4103C17.5977 18.4841 17.7766 18.4077 17.9079 18.274C18.0392 18.1403 18.1123 17.9601 18.1112 17.7726V13.8111H17.2565V17.6316Z" fill="white"/>
</svg>
