<svg width="50" height="38" viewBox="0 0 50 38" fill="none" xmlns="http://www.w3.org/2000/svg">
<path d="M31.25 3.125C32.0788 3.125 32.8737 3.45424 33.4597 4.04029C34.0458 4.62634 34.375 5.4212 34.375 6.25V31.25C34.375 32.0788 34.0458 32.8737 33.4597 33.4597C32.8737 34.0458 32.0788 34.375 31.25 34.375H18.75C17.9212 34.375 17.1263 34.0458 16.5403 33.4597C15.9542 32.8737 15.625 32.0788 15.625 31.25V6.25C15.625 5.4212 15.9542 4.62634 16.5403 4.04029C17.1263 3.45424 17.9212 3.125 18.75 3.125H31.25ZM18.75 0C17.0924 0 15.5027 0.65848 14.3306 1.83058C13.1585 3.00268 12.5 4.5924 12.5 6.25V31.25C12.5 32.9076 13.1585 34.4973 14.3306 35.6694C15.5027 36.8415 17.0924 37.5 18.75 37.5H31.25C32.9076 37.5 34.4973 36.8415 35.6694 35.6694C36.8415 34.4973 37.5 32.9076 37.5 31.25V6.25C37.5 4.5924 36.8415 3.00268 35.6694 1.83058C34.4973 0.65848 32.9076 0 31.25 0H18.75Z" fill="white"/>
<path d="M25 31.2495C25.8288 31.2495 26.6237 30.9203 27.2097 30.3342C27.7958 29.7482 28.125 28.9533 28.125 28.1245C28.125 27.2957 27.7958 26.5009 27.2097 25.9148C26.6237 25.3288 25.8288 24.9995 25 24.9995C24.1712 24.9995 23.3764 25.3288 22.7903 25.9148C22.2043 26.5009 21.875 27.2957 21.875 28.1245C21.875 28.9533 22.2043 29.7482 22.7903 30.3342C23.3764 30.9203 24.1712 31.2495 25 31.2495ZM4.9969 6.43078C5.17832 6.52677 5.33906 6.65757 5.46992 6.8157C5.60078 6.97383 5.6992 7.15619 5.75956 7.35236C5.81992 7.54854 5.84104 7.75469 5.82171 7.95903C5.80238 8.16337 5.74298 8.3619 5.6469 8.54328C3.98517 11.6883 3.1193 15.1925 3.12503 18.7495C3.12503 22.437 4.03753 25.912 5.6469 28.9558C5.84084 29.3221 5.88131 29.7505 5.75941 30.1467C5.63752 30.5428 5.36323 30.8743 4.9969 31.0683C4.63057 31.2622 4.2022 31.3027 3.80603 31.1808C3.40986 31.0589 3.07834 30.7846 2.8844 30.4183C0.984475 26.8226 -0.00583609 22.8163 2.58732e-05 18.7495C2.58732e-05 14.5402 1.04378 10.5652 2.8844 7.08078C2.98039 6.89936 3.11119 6.73862 3.26932 6.60776C3.42745 6.4769 3.60981 6.37848 3.80599 6.31812C4.00216 6.25776 4.20831 6.23664 4.41265 6.25597C4.61699 6.2753 4.81552 6.3347 4.9969 6.43078V6.43078ZM45.0032 6.43078C45.1845 6.3347 45.3831 6.2753 45.5874 6.25597C45.7917 6.23664 45.9979 6.25776 46.1941 6.31812C46.3902 6.37848 46.5726 6.4769 46.7307 6.60776C46.8889 6.73862 47.0197 6.89936 47.1157 7.08078C49.0157 10.6764 50.006 14.6827 50 18.7495C50.006 22.8163 49.0157 26.8226 47.1157 30.4183C46.9217 30.7846 46.5902 31.0589 46.194 31.1808C45.7978 31.3027 45.3695 31.2622 45.0032 31.0683C44.6368 30.8743 44.3625 30.5428 44.2406 30.1467C44.1187 29.7505 44.1592 29.3221 44.3532 28.9558C46.0149 25.8108 46.8808 22.3065 46.875 18.7495C46.875 15.062 45.9625 11.587 44.3532 8.54328C44.2571 8.3619 44.1977 8.16337 44.1783 7.95903C44.159 7.75469 44.1801 7.54854 44.2405 7.35236C44.3009 7.15619 44.3993 6.97383 44.5301 6.8157C44.661 6.65757 44.8217 6.52677 45.0032 6.43078ZM9.55315 11.0433C9.74446 11.1179 9.91919 11.2294 10.0674 11.3716C10.2155 11.5138 10.3342 11.6838 10.4166 11.8718C10.499 12.0599 10.5436 12.2624 10.5477 12.4677C10.5518 12.673 10.5155 12.8771 10.4407 13.0683C9.73421 14.879 9.37278 16.8059 9.37503 18.7495C9.37503 20.7558 9.75003 22.6714 10.4375 24.4308C10.5247 24.6239 10.5717 24.8328 10.5757 25.0446C10.5796 25.2565 10.5405 25.467 10.4605 25.6632C10.3806 25.8595 10.2616 26.0374 10.1107 26.1862C9.95984 26.335 9.78028 26.4516 9.58295 26.5288C9.38563 26.606 9.17465 26.6423 8.96286 26.6355C8.75106 26.6286 8.54288 26.5787 8.35097 26.4889C8.15905 26.399 7.98742 26.2711 7.8465 26.1128C7.70559 25.9546 7.59834 25.7693 7.53128 25.5683C6.68273 23.3951 6.24818 21.0825 6.25003 18.7495C6.25003 16.3464 6.70315 14.0464 7.53128 11.9308C7.68195 11.5452 7.97951 11.2351 8.3586 11.0687C8.73769 10.9023 9.16732 10.8932 9.55315 11.0433V11.0433ZM40.4469 11.0433C40.6381 10.9685 40.8422 10.9321 41.0475 10.9362C41.2528 10.9403 41.4553 10.9849 41.6434 11.0673C41.8314 11.1497 42.0014 11.2684 42.1436 11.4166C42.2857 11.5647 42.3973 11.7395 42.4719 11.9308C43.2969 14.0464 43.75 16.3464 43.75 18.7495C43.75 21.1527 43.2969 23.4527 42.4688 25.5683C42.3039 25.9334 42.0051 26.2212 41.6341 26.3723C41.2631 26.5235 40.8483 26.5263 40.4752 26.3803C40.1022 26.2343 39.7995 25.9506 39.6296 25.5878C39.4598 25.225 39.4357 24.8108 39.5625 24.4308C40.25 22.6714 40.625 20.7558 40.625 18.7495C40.625 16.7433 40.25 14.8277 39.5625 13.0683C39.4113 12.6825 39.4195 12.2524 39.5853 11.8726C39.7512 11.4929 40.0611 11.1945 40.4469 11.0433V11.0433Z" fill="white"/>
</svg>
