<svg width="50" height="51" viewBox="0 0 50 51" fill="none" xmlns="http://www.w3.org/2000/svg">
<path d="M37.4729 22.0753C37.4729 28.9635 31.8889 34.5475 25.0007 34.5475C18.1125 34.5475 12.5285 28.9635 12.5285 22.0753C12.5285 20.1344 12.9847 18.3045 13.775 16.667H0V45.8337C0 48.5073 2.1875 50.6948 4.86111 50.6948H45.1389C47.8125 50.6948 50 48.5073 50 45.8337V16.667H36.2257C37.0449 18.3523 37.4714 20.2014 37.4729 22.0753V22.0753Z" fill="white"/>
<path d="M45.1389 0H4.86111C2.1875 0 0 2.1875 0 4.86111V14.5833H15.0451C17.3215 11.5632 20.9271 9.60278 25 9.60278C29.0729 9.60278 32.6785 11.5632 34.9549 14.5833H50V4.86111C50 2.1875 47.8125 0 45.1389 0ZM3.99722 12.3028H2.1875V5.29236C2.18744 4.71053 2.35923 4.14165 2.68132 3.6571C3.0034 3.17255 3.46143 2.79393 3.99792 2.56875V12.3028H3.99722ZM6.9625 12.3028H5.24792V2.33889H6.9625V12.3028ZM9.92708 12.3028H8.2125V2.33889H9.92708V12.3028ZM12.8896 5.29236V12.3028H11.1771V2.33889H12.8896V5.29236V5.29236ZM47.466 9.3493C47.4661 9.73707 47.3898 10.1211 47.2415 10.4793C47.0932 10.8376 46.8757 11.1632 46.6016 11.4374C46.3275 11.7117 46.002 11.9293 45.6438 12.0777C45.2856 12.2262 44.9017 12.3027 44.5139 12.3028H39.716C39.3281 12.3028 38.9441 12.2264 38.5858 12.0779C38.2275 11.9295 37.902 11.7119 37.6278 11.4377C37.3536 11.1634 37.1361 10.8378 36.9878 10.4795C36.8394 10.1212 36.7631 9.73713 36.7632 9.3493V5.29236C36.7631 4.90454 36.8394 4.5205 36.9878 4.16217C37.1361 3.80384 37.3536 3.47825 37.6278 3.20398C37.902 2.92972 38.2275 2.71216 38.5858 2.56372C38.9441 2.41529 39.3281 2.33889 39.716 2.33889H44.5139C44.9017 2.33889 45.2857 2.41529 45.6439 2.56374C46.0022 2.71218 46.3277 2.92975 46.6018 3.20403C46.876 3.4783 47.0934 3.8039 47.2417 4.16222C47.3899 4.52054 47.4662 4.90457 47.466 5.29236V9.3493Z" fill="white"/>
<path d="M25.0008 33.0887C31.0674 33.0887 35.9855 28.1686 35.9855 22.1033C35.9855 16.0373 31.0681 11.1172 25.0008 11.1172C18.9327 11.1172 14.0146 16.0373 14.0146 22.1033C14.0146 28.1679 18.9327 33.0887 25.0008 33.0887V33.0887ZM25.0001 13.3505C29.8334 13.3505 33.7528 17.2693 33.7528 22.1033C33.7528 26.9366 29.8341 30.8561 25.0001 30.8561C20.166 30.8561 16.2473 26.9373 16.2473 22.1033C16.248 17.2686 20.1667 13.3505 25.0001 13.3505Z" fill="white"/>
</svg>
